<svg width="24" height="24" viewBox="0 0 24 24" fill="none" xmlns="http://www.w3.org/2000/svg">
<path fill-rule="evenodd" clip-rule="evenodd" d="M6.5 5C4.567 5 3 6.567 3 8.5C3 10.433 4.567 12 6.5 12C8.433 12 10 10.433 10 8.5C10 6.567 8.433 5 6.5 5ZM1 8.5C1 5.46243 3.46243 3 6.5 3C9.53757 3 12 5.46243 12 8.5C12 11.5376 9.53757 14 6.5 14C3.46243 14 1 11.5376 1 8.5ZM17.5 5C15.567 5 14 6.567 14 8.5C14 10.433 15.567 12 17.5 12C19.433 12 21 10.433 21 8.5C21 6.567 19.433 5 17.5 5ZM12 8.5C12 5.46243 14.4624 3 17.5 3C20.5376 3 23 5.46243 23 8.5C23 11.5376 20.5376 14 17.5 14C14.4624 14 12 11.5376 12 8.5Z" fill="#2C2C2C"/>
<path d="M9 12H4V12.5H3V16C3 16.5523 3.44772 17 4 17H9C9.55228 17 10 16.5523 10 16V12.5H9V12ZM20 12H15V12.5H14V16C14 16.5523 14.4477 17 15 17H20C20.5523 17 21 16.5523 21 16V12.5H20V12Z" fill="#2C2C2C"/>
<path fill-rule="evenodd" clip-rule="evenodd" d="M5.5 16.5V16H7.5V16.5C7.5 17.8807 8.61929 19 10 19H14C15.3807 19 16.5 17.8807 16.5 16.5V16H18.5V16.5C18.5 18.9853 16.4853 21 14 21H10C7.51472 21 5.5 18.9853 5.5 16.5Z" fill="#2C2C2C"/>
</svg>
