<svg width="24" height="24" viewBox="0 0 24 24" fill="none" xmlns="http://www.w3.org/2000/svg">
<path d="M17.7002 7.25C19.3873 7.25 20.2309 7.25006 20.8223 7.67969C21.0133 7.81847 21.1815 7.98672 21.3203 8.17773C21.7498 8.76915 21.75 9.61279 21.75 11.2998V17.7002C21.75 19.3872 21.7498 20.2309 21.3203 20.8223C21.1815 21.0133 21.0133 21.1815 20.8223 21.3203C20.2309 21.7499 19.3873 21.75 17.7002 21.75H6.48828C4.71391 21.75 3.82647 21.7496 3.22266 21.29C3.02826 21.142 2.85961 20.9631 2.72266 20.7607C2.29742 20.1324 2.34592 19.247 2.44434 17.4756L2.98438 7.75H9.01465L9.20898 11.25H13.25C13.25 9.61038 13.2503 8.79011 13.6572 8.20898C13.8076 7.99433 13.9943 7.8076 14.209 7.65723C14.7901 7.25032 15.6104 7.25 17.25 7.25H17.7002ZM12.5 15.25C12.0327 15.25 11.799 15.2501 11.625 15.3506C11.511 15.4164 11.4164 15.511 11.3506 15.625C11.2501 15.799 11.25 16.0327 11.25 16.5C11.25 16.9673 11.2501 17.201 11.3506 17.375C11.4164 17.489 11.511 17.5836 11.625 17.6494C11.799 17.7499 12.0327 17.75 12.5 17.75C12.9673 17.75 13.201 17.7499 13.375 17.6494C13.489 17.5836 13.5836 17.489 13.6494 17.375C13.7499 17.201 13.75 16.9673 13.75 16.5C13.75 16.0327 13.7499 15.799 13.6494 15.625C13.5836 15.511 13.489 15.4164 13.375 15.3506C13.201 15.2501 12.9673 15.25 12.5 15.25ZM17 15.25C16.5327 15.25 16.299 15.2501 16.125 15.3506C16.011 15.4164 15.9164 15.511 15.8506 15.625C15.7501 15.799 15.75 16.0327 15.75 16.5C15.75 16.9673 15.7501 17.201 15.8506 17.375C15.9164 17.489 16.011 17.5836 16.125 17.6494C16.299 17.7499 16.5327 17.75 17 17.75C17.4673 17.75 17.701 17.7499 17.875 17.6494C17.989 17.5836 18.0836 17.489 18.1494 17.375C18.2499 17.201 18.25 16.9673 18.25 16.5C18.25 16.0327 18.2499 15.799 18.1494 15.625C18.0836 15.511 17.989 15.4164 17.875 15.3506C17.701 15.2501 17.4673 15.25 17 15.25ZM7.43262 2.25C7.96698 2.25 8.23407 2.25032 8.42676 2.38379C8.48915 2.42703 8.54516 2.47917 8.5918 2.53906C8.73588 2.7241 8.75061 2.99148 8.78027 3.52539L8.93164 6.25H3.06836L3.21973 3.52539C3.24939 2.99147 3.26412 2.7241 3.4082 2.53906C3.45474 2.47932 3.51005 2.42696 3.57227 2.38379C3.765 2.25019 4.03268 2.25 4.56738 2.25H7.43262Z" fill="#2C2C2C"/>
</svg>
