<svg width="24" height="24" viewBox="0 0 24 24" fill="none" xmlns="http://www.w3.org/2000/svg">
<path fill-rule="evenodd" clip-rule="evenodd" d="M15 2.25C15.4142 2.25 15.75 2.58579 15.75 3C15.75 4.11561 15.4705 5.09001 14.7803 5.78027C14.7468 5.81376 14.7125 5.84637 14.6777 5.87793C15.9391 6.48586 17.04 7.49151 17.9111 8.69727C19.3602 10.7031 20.25 13.3564 20.25 16C20.25 19.0418 18.1706 21.75 15.333 21.75H8.66699C5.82936 21.75 3.75 19.0418 3.75 16C3.75 13.3564 4.63983 10.7031 6.08887 8.69727C6.95995 7.49151 8.06089 6.48586 9.32227 5.87793C9.28746 5.84637 9.25321 5.81376 9.21973 5.78027C8.52947 5.09001 8.25 4.11561 8.25 3C8.25 2.58579 8.58579 2.25 9 2.25H15ZM12 9C11.7239 9 11.5 9.22386 11.5 9.5V10.042C10.8898 10.1451 10.3222 10.4356 9.87891 10.8789C9.3163 11.4415 9 12.2043 9 13V16.5C9 16.7761 9.22386 17 9.5 17C9.77614 17 10 16.7761 10 16.5V13C10 12.4696 10.2109 11.961 10.5859 11.5859C10.8407 11.3312 11.157 11.1521 11.5 11.0635V16.5C11.5 16.7761 11.7239 17 12 17C12.2761 17 12.5 16.7761 12.5 16.5V11.0635C12.843 11.1521 13.1593 11.3312 13.4141 11.5859C13.7892 11.961 14 12.4696 14 13V16.5C14 16.7761 14.2239 17 14.5 17C14.7761 17 15 16.7761 15 16.5V13C15 12.2044 14.6837 11.4415 14.1211 10.8789C13.6777 10.4356 13.1101 10.1451 12.5 10.042V9.5C12.5 9.22386 12.2761 9 12 9Z" fill="#2C2C2C"/>
</svg>
